<?xml version="1.0" encoding="utf-8"?>
<!-- Generator: Adobe Illustrator 15.0.2, SVG Export Plug-In . SVG Version: 6.00 Build 0)  -->
<!DOCTYPE svg PUBLIC "-//W3C//DTD SVG 1.1//EN" "http://www.w3.org/Graphics/SVG/1.1/DTD/svg11.dtd">
<svg version="1.1" id="Layer_1" xmlns="http://www.w3.org/2000/svg" xmlns:xlink="http://www.w3.org/1999/xlink" x="0px" y="0px"
	 width="7.356px" height="60.64px" viewBox="0 0 7.356 60.64" enable-background="new 0 0 7.356 60.64" xml:space="preserve">
<path fill="#231F20" d="M5.903,28.72l-0.399-1.969l0.836-0.169l0.399,1.969L5.903,28.72z M5.104,24.782l-0.398-1.969l0.836-0.169
	l0.398,1.969L5.104,24.782z M4.307,20.844l-0.399-1.969l0.835-0.169l0.399,1.969L4.307,20.844z M3.509,16.906L3.11,14.937
	l0.835-0.169l0.399,1.969L3.509,16.906z M2.71,12.968L2.312,11l0.835-0.169l0.399,1.969L2.71,12.968z M1.912,9.03L1.513,7.062
	l0.835-0.169l0.399,1.969L1.912,9.03z M1.114,5.092L0.715,3.124L1.55,2.955l0.399,1.969L1.114,5.092z"/>
<path fill="#231F20" d="M1.527,57.542l-0.831-0.188l0.464-2.068l0.831,0.188L1.527,57.542z M2.457,53.406l-0.831-0.188L2.09,51.15
	l0.831,0.188L2.457,53.406z M3.386,49.269l-0.831-0.188l0.464-2.069L3.851,47.2L3.386,49.269z M4.315,45.131l-0.831-0.188
	l0.464-2.068l0.832,0.188L4.315,45.131z M5.245,40.995l-0.832-0.188l0.465-2.068l0.832,0.188L5.245,40.995z M6.175,36.858
	L5.343,36.67l0.465-2.068L6.64,34.79L6.175,36.858z"/>
<path fill="#231F20" d="M0.831,60.64L0,60.455l0.232-1.034l0.831,0.186L0.831,60.64z M7.104,32.72l-0.832-0.188l0.214-0.944
	l-0.182-0.895l0.834-0.17l0.219,1.074L7.104,32.72z M0.316,1.155l-0.2-0.985L0.951,0l0.2,0.985L0.316,1.155z"/>
</svg>
