<?xml version="1.0" encoding="utf-8"?>
<!-- Generator: Adobe Illustrator 15.0.2, SVG Export Plug-In . SVG Version: 6.00 Build 0)  -->
<!DOCTYPE svg PUBLIC "-//W3C//DTD SVG 1.1//EN" "http://www.w3.org/Graphics/SVG/1.1/DTD/svg11.dtd">
<svg version="1.1" id="Layer_1" xmlns="http://www.w3.org/2000/svg" xmlns:xlink="http://www.w3.org/1999/xlink" x="0px" y="0px"
	 width="13.267px" height="13.671px" viewBox="0 0 13.267 13.671" enable-background="new 0 0 13.267 13.671" xml:space="preserve">
<g>
	<path d="M3.354,2.207c-0.588,0-1.066-0.47-1.066-1.047s0.479-1.047,1.066-1.047S4.42,0.583,4.42,1.16S3.942,2.207,3.354,2.207z
		 M3.354,0.363c-0.45,0-0.816,0.357-0.816,0.797s0.366,0.797,0.816,0.797S4.17,1.6,4.17,1.16S3.804,0.363,3.354,0.363z"/>
</g>
<g>
	<path d="M6.633,2.207c-0.588,0-1.066-0.47-1.066-1.047s0.479-1.047,1.066-1.047S7.7,0.583,7.7,1.16S7.221,2.207,6.633,2.207z
		 M6.633,0.363c-0.45,0-0.816,0.357-0.816,0.797s0.366,0.797,0.816,0.797S7.45,1.6,7.45,1.16S7.083,0.363,6.633,0.363z"/>
</g>
<g>
	<path d="M9.912,2.207c-0.588,0-1.066-0.47-1.066-1.047s0.479-1.047,1.066-1.047s1.066,0.47,1.066,1.047S10.5,2.207,9.912,2.207z
		 M9.912,0.363c-0.45,0-0.816,0.357-0.816,0.797s0.366,0.797,0.816,0.797c0.45,0,0.816-0.357,0.816-0.797S10.362,0.363,9.912,0.363z
		"/>
</g>
<g>
	<path d="M3.432,13.558H3.275c-0.486,0-0.882-0.54-0.882-1.204v-8.56c0-0.664,0.396-1.203,0.882-1.203h0.157
		c0.486,0,0.882,0.54,0.882,1.203v8.56C4.314,13.018,3.918,13.558,3.432,13.558z M3.275,2.84c-0.349,0-0.632,0.428-0.632,0.953v8.56
		c0,0.526,0.283,0.954,0.632,0.954h0.157c0.349,0,0.632-0.428,0.632-0.954v-8.56c0-0.525-0.284-0.953-0.632-0.953H3.275z"/>
</g>
<g>
	<path d="M6.712,13.558H6.554c-0.486,0-0.882-0.54-0.882-1.204v-8.56c0-0.664,0.396-1.203,0.882-1.203h0.158
		c0.486,0,0.882,0.54,0.882,1.203v8.56C7.594,13.018,7.198,13.558,6.712,13.558z M6.554,2.84c-0.349,0-0.632,0.428-0.632,0.953v8.56
		c0,0.526,0.283,0.954,0.632,0.954h0.158c0.349,0,0.632-0.428,0.632-0.954v-8.56c0-0.517-0.29-0.953-0.632-0.953H6.554z"/>
</g>
<g>
	<path d="M9.99,13.558H9.833c-0.486,0-0.882-0.54-0.882-1.204v-8.56c0-0.664,0.396-1.203,0.882-1.203H9.99
		c0.486,0,0.882,0.54,0.882,1.203v8.56C10.873,13.018,10.477,13.558,9.99,13.558z M9.833,2.84c-0.349,0-0.632,0.428-0.632,0.953
		v8.56c0,0.526,0.284,0.954,0.632,0.954H9.99c0.349,0,0.632-0.428,0.632-0.954v-8.56c0-0.525-0.284-0.953-0.632-0.953H9.833z"/>
</g>
<g>
	<path d="M12.967,4.371H0.3c-0.138,0-0.25-0.112-0.25-0.25s0.112-0.25,0.25-0.25h12.667c0.138,0,0.25,0.112,0.25,0.25
		S13.105,4.371,12.967,4.371z"/>
</g>
<g>
	<path d="M12.967,5.696H0.3c-0.138,0-0.25-0.112-0.25-0.25s0.112-0.25,0.25-0.25h12.667c0.138,0,0.25,0.112,0.25,0.25
		S13.105,5.696,12.967,5.696z"/>
</g>
<g>
	<path d="M12.967,7.053H0.3c-0.138,0-0.25-0.112-0.25-0.25s0.112-0.25,0.25-0.25h12.667c0.138,0,0.25,0.112,0.25,0.25
		S13.105,7.053,12.967,7.053z"/>
</g>
</svg>
