<?xml version="1.0" encoding="utf-8"?>
<!-- Generator: Adobe Illustrator 15.0.2, SVG Export Plug-In . SVG Version: 6.00 Build 0)  -->
<!DOCTYPE svg PUBLIC "-//W3C//DTD SVG 1.1//EN" "http://www.w3.org/Graphics/SVG/1.1/DTD/svg11.dtd">
<svg version="1.1" id="Layer_1" xmlns="http://www.w3.org/2000/svg" xmlns:xlink="http://www.w3.org/1999/xlink" x="0px" y="0px"
	 width="25.411px" height="24.686px" viewBox="0 0 25.411 24.686" enable-background="new 0 0 25.411 24.686" xml:space="preserve">
<g>
	<defs>
		<rect id="SVGID_1_" width="25.411" height="24.686"/>
	</defs>
	<clipPath id="SVGID_2_">
		<use xlink:href="#SVGID_1_"  overflow="visible"/>
	</clipPath>
	<g clip-path="url(#SVGID_2_)">
		<path d="M19.144,24.686h-0.3c-0.967,0-1.753-1.019-1.753-2.271V6.789c0-1.25,0.786-2.268,1.753-2.268h0.3
			c0.967,0,1.753,1.017,1.753,2.268v15.626C20.896,23.667,20.11,24.686,19.144,24.686z M18.844,5.121
			c-0.636,0-1.153,0.749-1.153,1.668v15.626c0,0.921,0.518,1.671,1.153,1.671h0.3c0.636,0,1.153-0.75,1.153-1.671V6.789
			c0-0.919-0.518-1.668-1.153-1.668H18.844z M12.857,24.686h-0.303c-0.966,0-1.751-1.019-1.751-2.271V6.789
			c0-1.25,0.785-2.268,1.751-2.268h0.303c0.966,0,1.751,1.017,1.751,2.268v15.626C14.608,23.667,13.823,24.686,12.857,24.686z
			 M12.554,5.121c-0.635,0-1.151,0.749-1.151,1.668v15.626c0,0.921,0.517,1.671,1.151,1.671h0.303c0.624,0,1.152-0.765,1.152-1.671
			V6.789c0-0.904-0.528-1.668-1.152-1.668H12.554z M6.566,24.686h-0.3c-0.966,0-1.752-1.019-1.752-2.271V6.789
			c0-1.25,0.786-2.268,1.752-2.268h0.3c0.966,0,1.752,1.017,1.752,2.268v15.626C8.318,23.667,7.532,24.686,6.566,24.686z
			 M6.266,5.121c-0.625,0-1.152,0.764-1.152,1.668v15.626c0,0.906,0.528,1.671,1.152,1.671h0.3c0.636,0,1.153-0.75,1.153-1.671
			V6.789c0-0.919-0.517-1.668-1.153-1.668H6.266z M18.994,3.965c-1.161,0-2.105-0.889-2.105-1.982S17.833,0,18.994,0
			s2.105,0.889,2.105,1.982S20.154,3.965,18.994,3.965z M18.994,0.6c-0.83,0-1.505,0.621-1.505,1.383s0.675,1.383,1.505,1.383
			s1.505-0.621,1.505-1.383S19.824,0.6,18.994,0.6z M12.706,3.965c-1.161,0-2.105-0.889-2.105-1.982S11.544,0,12.706,0
			c1.161,0,2.105,0.889,2.105,1.982S13.866,3.965,12.706,3.965z M12.706,0.6c-0.83,0-1.506,0.621-1.506,1.383
			s0.676,1.383,1.506,1.383s1.505-0.621,1.505-1.383S13.536,0.6,12.706,0.6z M6.416,3.965c-1.161,0-2.104-0.889-2.104-1.982
			S5.255,0,6.416,0c1.161,0,2.106,0.889,2.106,1.982S7.577,3.965,6.416,3.965z M6.416,0.6c-0.83,0-1.505,0.621-1.505,1.383
			s0.675,1.383,1.505,1.383c0.831,0,1.506-0.621,1.506-1.383S7.246,0.6,6.416,0.6z"/>
	</g>
	<g clip-path="url(#SVGID_2_)">
		<path d="M24.911,12.997H0.5c-0.276,0-0.5-0.224-0.5-0.5s0.224-0.5,0.5-0.5h24.411c0.276,0,0.5,0.224,0.5,0.5
			S25.188,12.997,24.911,12.997z M24.911,10.326H0.5c-0.276,0-0.5-0.224-0.5-0.5s0.224-0.5,0.5-0.5h24.411
			c0.276,0,0.5,0.224,0.5,0.5S25.188,10.326,24.911,10.326z M24.911,7.718H0.5c-0.276,0-0.5-0.224-0.5-0.5s0.224-0.5,0.5-0.5h24.411
			c0.276,0,0.5,0.224,0.5,0.5S25.188,7.718,24.911,7.718z"/>
	</g>
</g>
</svg>
