<?xml version="1.0" encoding="utf-8"?>
<!-- Generator: Adobe Illustrator 15.0.2, SVG Export Plug-In . SVG Version: 6.00 Build 0)  -->
<!DOCTYPE svg PUBLIC "-//W3C//DTD SVG 1.1//EN" "http://www.w3.org/Graphics/SVG/1.1/DTD/svg11.dtd">
<svg version="1.1" id="Layer_1" xmlns="http://www.w3.org/2000/svg" xmlns:xlink="http://www.w3.org/1999/xlink" x="0px" y="0px"
	 width="20.803px" height="14.35px" viewBox="0 0 20.803 14.35" enable-background="new 0 0 20.803 14.35" xml:space="preserve">
<g>
	<path d="M14.406,14.35l-5.67-2.613l-1.379,1.466L4.96,11.868l0.234-1.764L4.516,9.792H2.895L0,10.394v-2.63h14.406V14.35z
		 M4.57,9.292l0.104,0.023l9.231,4.254V8.264H0.5v1.517l2.344-0.484L4.57,9.292z M5.5,11.597l1.76,0.98l0.998-1.061L5.67,10.324
		L5.5,11.597z M19.795,12.905l-3.588-1.904l0.234-0.441l3.588,1.904L19.795,12.905z M20.803,7.348h-4.277v-0.5h4.277V7.348z
		 M14.406,6.736H0V4.013l2.952,0.702l1.561-0.007L14.406,0V6.736z M0.5,6.236h13.406V0.792L4.57,5.208H2.895L0.5,4.645V6.236z
		 M16.441,3.464l-0.234-0.441l3.588-1.904l0.234,0.441L16.441,3.464z"/>
</g>
</svg>
