<?xml version="1.0" encoding="utf-8"?>
<!-- Generator: Adobe Illustrator 15.0.2, SVG Export Plug-In . SVG Version: 6.00 Build 0)  -->
<!DOCTYPE svg PUBLIC "-//W3C//DTD SVG 1.1//EN" "http://www.w3.org/Graphics/SVG/1.1/DTD/svg11.dtd">
<svg version="1.1" id="Layer_1" xmlns="http://www.w3.org/2000/svg" xmlns:xlink="http://www.w3.org/1999/xlink" x="0px" y="0px"
	 width="14.753px" height="10.802px" viewBox="0 0 14.753 10.802" enable-background="new 0 0 14.753 10.802" xml:space="preserve">
<g>
	<rect x="4.482" y="0.671" width="6.078" height="0.5"/>
</g>
<g>
	<rect x="5.572" y="2.755" width="4.629" height="0.5"/>
</g>
<g>
	<rect x="7.279" y="4.671" width="2.451" height="0.5"/>
</g>
<g>
	<path d="M4.814,8.859L4.814,8.859c-1.398,0-2.713-0.712-3.703-2.004C0.289,5.781-0.089,4.602,0.018,3.443
		C0.134,2.194,0.819,1.057,2,0.152L2.198,0l5.814,7.592L7.814,7.744C6.848,8.484,5.839,8.859,4.814,8.859z M2.108,0.705
		C1.161,1.494,0.612,2.453,0.516,3.489C0.42,4.52,0.764,5.579,1.508,6.551c0.894,1.166,2.067,1.808,3.307,1.808l0,0
		c0.842,0,1.68-0.291,2.494-0.864L2.108,0.705z"/>
</g>
<g>
	<path d="M9.904,10.802L9.904,10.802c-1.076,0-2.122-0.414-3.108-1.229l-0.193-0.16l6.092-7.371l0.193,0.159
		c1.146,0.947,1.789,2.11,1.858,3.362c0.064,1.162-0.357,2.327-1.219,3.37C12.532,10.139,11.245,10.802,9.904,10.802z M7.311,9.344
		c0.835,0.636,1.707,0.958,2.594,0.958c1.189,0,2.339-0.599,3.238-1.687c0.78-0.944,1.163-1.99,1.105-3.023
		c-0.058-1.04-0.571-2.018-1.488-2.841L7.311,9.344z"/>
</g>
</svg>
