<?xml version="1.0" encoding="utf-8"?>
<!-- Generator: Adobe Illustrator 15.0.2, SVG Export Plug-In . SVG Version: 6.00 Build 0)  -->
<!DOCTYPE svg PUBLIC "-//W3C//DTD SVG 1.1//EN" "http://www.w3.org/Graphics/SVG/1.1/DTD/svg11.dtd">
<svg version="1.1" id="Layer_1" xmlns="http://www.w3.org/2000/svg" xmlns:xlink="http://www.w3.org/1999/xlink" x="0px" y="0px"
	 width="24px" height="24px" viewBox="0 0 24 24" enable-background="new 0 0 24 24" xml:space="preserve">
<path d="M23.6,0.4V23.6H0.4V0.4H23.6 M24,0H0V24h24V0L24,0z"/>
<g>
	<path d="M23.468,12.15h-1v-0.3h1V12.15z M21.468,12.15h-1v-0.3h1V12.15z M19.468,12.15h-1v-0.3h1V12.15z M17.468,12.15h-1v-0.3h1
		V12.15z M15.468,12.15h-1v-0.3h1V12.15z M13.468,12.15h-1v-0.3h1V12.15z M11.468,12.15h-1v-0.3h1V12.15z M9.468,12.15h-1v-0.3h1
		V12.15z M7.468,12.15h-1v-0.3h1V12.15z M5.468,12.15h-1v-0.3h1V12.15z M3.468,12.15h-1v-0.3h1V12.15z M1.468,12.15h-1v-0.3h1V12.15
		z"/>
</g>
<g>
	<path d="M12.204,23.25h-0.3v-1h0.3V23.25z M12.204,21.25h-0.3v-1h0.3V21.25z M12.204,19.25h-0.3v-1h0.3V19.25z M12.204,17.25h-0.3
		v-1h0.3V17.25z M12.204,15.25h-0.3v-1h0.3V15.25z M12.204,13.25h-0.3v-1h0.3V13.25z M12.204,11.25h-0.3v-1h0.3V11.25z M12.204,9.25
		h-0.3v-1h0.3V9.25z M12.204,7.25h-0.3v-1h0.3V7.25z M12.204,5.25h-0.3v-1h0.3V5.25z M12.204,3.25h-0.3v-1h0.3V3.25z M12.204,1.25
		h-0.3v-1h0.3V1.25z"/>
</g>
<g>
	<path fill="#231F20" d="M11.821,9.184l1.712-0.214l0.357-0.643l0.856,0.714l-0.428,0.5l-0.356,3.139l0.642,0.713l-5.637,0.714
		v4.067l2.568-1.927l0.214,0.214c-1.809,1.618-2.854,2.64-3.14,3.068l-0.713-0.642l0.428-0.428v-7.135
		c0.047-1.236-0.024-2.021-0.214-2.354c-0.904,0.952-2.212,2.022-3.924,3.21l-0.143-0.214c1.284-1.046,2.378-2.045,3.282-2.997
		c0.903-0.951,1.831-2.021,2.783-3.211c0.951-1.188,1.379-2.021,1.284-2.498h0.214l0.642,1.142c-0.143-0.046-0.31,0.048-0.5,0.286
		c1.379,1.427,2.556,2.569,3.532,3.425c0.975,0.856,1.629,1.392,1.962,1.605c0.332,0.214,1.236,0.369,2.711,0.464v0.356
		c-1.523,0.096-2.497,0.214-2.925,0.357c-0.428-0.523-2.26-2.473-5.494-5.851c-1.142,1.427-2.188,2.593-3.139,3.496l0.5,0.999
		l2.711-0.357c-0.239-0.523-0.667-1.188-1.285-1.998l0.214-0.285c0.571,0.524,1.094,0.976,1.569,1.355
		C12.011,8.59,11.916,8.898,11.821,9.184z M12.25,10.968l0.713,0.642c-0.619,0.048-1.951,0.239-3.996,0.571v1.285l4.353-0.571
		l0.285-3.282l-4.638,0.571v1.355C10.632,11.301,11.726,11.11,12.25,10.968z M14.747,14.321c0.286-0.428,0.452-0.785,0.5-1.07
		l0.214-0.071l0.428,1.284c-0.143,0-0.417,0.167-0.82,0.5c-0.405,0.333-0.917,0.713-1.534,1.142
		c1.094,0.667,1.926,1.166,2.497,1.499c0.143,0.619,0.214,1.165,0.214,1.641c-0.667-0.81-2.593-2.401-5.779-4.781l0.214-0.285
		c1.094,0.761,1.926,1.309,2.497,1.641C13.938,15.249,14.461,14.75,14.747,14.321z"/>
</g>
</svg>
