<?xml version="1.0" encoding="utf-8"?>
<!-- Generator: Adobe Illustrator 15.0.2, SVG Export Plug-In . SVG Version: 6.00 Build 0)  -->
<!DOCTYPE svg PUBLIC "-//W3C//DTD SVG 1.1//EN" "http://www.w3.org/Graphics/SVG/1.1/DTD/svg11.dtd">
<svg version="1.1" id="Layer_1" xmlns="http://www.w3.org/2000/svg" xmlns:xlink="http://www.w3.org/1999/xlink" x="0px" y="0px"
	 width="14.666px" height="14.666px" viewBox="0 0 14.666 14.666" enable-background="new 0 0 14.666 14.666" xml:space="preserve">
<g>
	<circle fill="#FFFFFF" cx="7.333" cy="7.333" r="6.833"/>
	<path d="M7.333,14.666C3.29,14.666,0,11.376,0,7.333C0,3.29,3.29,0,7.333,0s7.333,3.29,7.333,7.333
		C14.666,11.376,11.376,14.666,7.333,14.666z M7.333,1C3.841,1,1,3.841,1,7.333s2.841,6.333,6.333,6.333
		c3.492,0,6.333-2.841,6.333-6.333S10.825,1,7.333,1z"/>
</g>
<g>
	<polygon fill="#010101" points="8.141,12.043 8.141,5.691 11.879,5.691 7.333,2.624 2.786,5.691 6.409,5.691 6.409,12.043 	"/>
</g>
</svg>
