<?xml version="1.0" encoding="utf-8"?>
<!-- Generator: Adobe Illustrator 15.0.2, SVG Export Plug-In . SVG Version: 6.00 Build 0)  -->
<!DOCTYPE svg PUBLIC "-//W3C//DTD SVG 1.1//EN" "http://www.w3.org/Graphics/SVG/1.1/DTD/svg11.dtd">
<svg version="1.1" id="Layer_1" xmlns="http://www.w3.org/2000/svg" xmlns:xlink="http://www.w3.org/1999/xlink" x="0px" y="0px"
	 width="16.256px" height="17.389px" viewBox="0 0 16.256 17.389" enable-background="new 0 0 16.256 17.389" xml:space="preserve">
<path fill="#FFFFFF" d="M7.934-0.001v0.433h7.415L8.08,8.55C7.227,7.863,6.156,7.435,4.979,7.435C2.233,7.435,0,9.667,0,12.412
	s2.233,4.978,4.979,4.978c2.744,0,4.978-2.233,4.978-4.978c0-1.386-0.572-2.64-1.49-3.542l7.357-8.217v7.455h0.434v-8.108H7.934z
	 M9.522,12.412c0,2.506-2.038,4.544-4.544,4.544s-4.545-2.038-4.545-4.544s2.039-4.544,4.545-4.544S9.522,9.906,9.522,12.412z"/>
</svg>
