<?xml version="1.0" encoding="utf-8"?>
<!-- Generator: Adobe Illustrator 15.0.2, SVG Export Plug-In . SVG Version: 6.00 Build 0)  -->
<!DOCTYPE svg PUBLIC "-//W3C//DTD SVG 1.1//EN" "http://www.w3.org/Graphics/SVG/1.1/DTD/svg11.dtd">
<svg version="1.1" id="Layer_1" xmlns="http://www.w3.org/2000/svg" xmlns:xlink="http://www.w3.org/1999/xlink" x="0px" y="0px"
	 width="13.748px" height="16.084px" viewBox="0 0 13.748 16.084" enable-background="new 0 0 13.748 16.084" xml:space="preserve">
<g>
	<path fill="none" stroke="#030303" stroke-width="0.5" stroke-miterlimit="10" d="M8.531,15.834H5.167v-1.75h3.364V15.834z
		 M6.782,7.547c3.499-0.019,6.716-1.017,6.716-1.017s0.047,3.925-1.519,5.674c-1.569,1.748-2.775,1.741-5.198,1.741c0,0,0.135,0,0,0
		V7.547z M6.782,7.547C3.687,7.528,0.25,6.53,0.25,6.53s-0.026,3.996,1.542,5.744c1.566,1.75,2.843,1.811,5.125,1.811H6.782V7.547z
		 M8.664,2.922c0,0.985-0.799,1.785-1.785,1.785c-0.985,0-1.785-0.8-1.785-1.785c0-0.987,0.8-1.786,1.785-1.786
		C7.865,1.137,8.664,1.936,8.664,2.922z M0.657,2.97c0,0,2.632,2.624,6.196,2.624c3.563,0,6.373-2.624,6.373-2.624
		s-2.81-2.72-6.373-2.72C3.289,0.25,0.657,2.97,0.657,2.97z"/>
</g>
</svg>
