<?xml version="1.0" encoding="utf-8"?>
<!-- Generator: Adobe Illustrator 15.0.2, SVG Export Plug-In . SVG Version: 6.00 Build 0)  -->
<!DOCTYPE svg PUBLIC "-//W3C//DTD SVG 1.1//EN" "http://www.w3.org/Graphics/SVG/1.1/DTD/svg11.dtd">
<svg version="1.1" id="Layer_1" xmlns="http://www.w3.org/2000/svg" xmlns:xlink="http://www.w3.org/1999/xlink" x="0px" y="0px"
	 width="13.748px" height="16.084px" viewBox="0 0 13.748 16.084" enable-background="new 0 0 13.748 16.084" xml:space="preserve">
<path fill="#030303" d="M8.781,16.084H4.917v-1.828c-1.226-0.149-2.204-0.578-3.312-1.816C-0.008,10.641-0.001,6.695,0,6.528
	l0.002-0.331L0.32,6.29C0.354,6.3,3.759,7.278,6.782,7.297c3.421-0.019,6.61-0.996,6.642-1.006l0.32-0.099l0.004,0.335
	c0.002,0.164,0.029,4.043-1.582,5.844c-1.132,1.26-2.106,1.65-3.385,1.771V16.084z M5.417,15.584h2.864v-1.25H5.417V15.584z
	 M0.507,6.859c0.035,0.975,0.241,3.876,1.471,5.248c1.416,1.582,2.567,1.716,4.554,1.727v-6.04C4.06,7.738,1.414,7.098,0.507,6.859z
	 M7.032,7.794v5.901c2.247-0.001,3.313-0.045,4.762-1.658c1.226-1.369,1.419-4.208,1.449-5.174
	C12.354,7.107,9.789,7.743,7.032,7.794z M6.853,5.844c-3.625,0-6.262-2.587-6.372-2.697L0.306,2.973l0.171-0.177
	C0.588,2.682,3.225,0,6.853,0c3.623,0,6.429,2.677,6.546,2.791l0.189,0.183l-0.192,0.179C13.279,3.263,10.473,5.844,6.853,5.844z
	 M1.023,2.967c0.656,0.575,2.945,2.377,5.83,2.377c2.879,0,5.289-1.796,5.994-2.377C12.146,2.367,9.735,0.5,6.853,0.5
	C3.961,0.5,1.674,2.374,1.023,2.967z M6.879,4.958c-1.122,0-2.035-0.913-2.035-2.035c0-1.123,0.913-2.036,2.035-2.036
	S8.914,1.8,8.914,2.922C8.914,4.044,8.001,4.958,6.879,4.958z M6.879,1.387c-0.846,0-1.535,0.689-1.535,1.536
	s0.688,1.535,1.535,1.535s1.535-0.688,1.535-1.535S7.725,1.387,6.879,1.387z"/>
</svg>
