<?xml version="1.0" encoding="utf-8"?>
<!-- Generator: Adobe Illustrator 15.0.2, SVG Export Plug-In . SVG Version: 6.00 Build 0)  -->
<!DOCTYPE svg PUBLIC "-//W3C//DTD SVG 1.1//EN" "http://www.w3.org/Graphics/SVG/1.1/DTD/svg11.dtd">
<svg version="1.1" id="Layer_1" xmlns="http://www.w3.org/2000/svg" xmlns:xlink="http://www.w3.org/1999/xlink" x="0px" y="0px"
	 width="13.267px" height="13.671px" viewBox="0 0 13.267 13.671" enable-background="new 0 0 13.267 13.671" xml:space="preserve">
<g>
	<g>
		<path d="M13.267,13.671H0v-0.25c0-4.006,2.856-6.099,4.099-6.819C3.334,5.908,2.854,4.906,2.854,3.793
			C2.854,1.702,4.556,0,6.647,0c2.091,0,3.793,1.702,3.793,3.793c0,1.13-0.496,2.146-1.282,2.842
			c1.642,0.944,4.108,2.994,4.108,6.786V13.671z M0.504,13.171h12.259c-0.11-3.523-2.538-5.387-4.037-6.205
			C8.128,7.359,7.414,7.588,6.647,7.588c-0.786,0-1.517-0.24-2.123-0.651C3.503,7.491,0.626,9.387,0.504,13.171z M6.647,0.5
			c-1.816,0-3.294,1.478-3.294,3.293c0,1.816,1.478,3.294,3.294,3.294c1.816,0,3.293-1.478,3.293-3.294
			C9.94,1.978,8.463,0.5,6.647,0.5z"/>
	</g>
</g>
</svg>
