<?xml version="1.0" encoding="utf-8"?>
<!-- Generator: Adobe Illustrator 15.0.2, SVG Export Plug-In . SVG Version: 6.00 Build 0)  -->
<!DOCTYPE svg PUBLIC "-//W3C//DTD SVG 1.1//EN" "http://www.w3.org/Graphics/SVG/1.1/DTD/svg11.dtd">
<svg version="1.1" id="Layer_1" xmlns="http://www.w3.org/2000/svg" xmlns:xlink="http://www.w3.org/1999/xlink" x="0px" y="0px"
	 width="14.781px" height="8.052px" viewBox="0 0 14.781 8.052" enable-background="new 0 0 14.781 8.052" xml:space="preserve">
<g>
	<g>
		<path fill="#FFFFFF" d="M7.39,8.052c-2.155,0-3.938-1.54-4.198-3.524H0v-1h3.191C3.451,1.542,5.235,0,7.39,0
			c2.155,0,3.939,1.542,4.199,3.527h3.192v1h-3.192C11.329,6.512,9.545,8.052,7.39,8.052z M4.203,4.527
			C4.458,5.958,5.79,7.052,7.39,7.052s2.932-1.094,3.188-2.524H4.203z M4.203,3.527h6.374C10.322,2.095,8.99,1,7.39,1
			C5.79,1,4.458,2.095,4.203,3.527z"/>
	</g>
</g>
</svg>
