<?xml version="1.0" encoding="utf-8"?>
<!-- Generator: Adobe Illustrator 15.0.2, SVG Export Plug-In . SVG Version: 6.00 Build 0)  -->
<!DOCTYPE svg PUBLIC "-//W3C//DTD SVG 1.1//EN" "http://www.w3.org/Graphics/SVG/1.1/DTD/svg11.dtd">
<svg version="1.1" id="Layer_1" xmlns="http://www.w3.org/2000/svg" xmlns:xlink="http://www.w3.org/1999/xlink" x="0px" y="0px"
	 width="14.666px" height="14.666px" viewBox="0 0 14.666 14.666" enable-background="new 0 0 14.666 14.666" xml:space="preserve">
<g>
	<circle fill="#FFFFFF" cx="7.333" cy="7.333" r="6.833"/>
	<path fill="#231F20" d="M7.333,14.666C3.29,14.666,0,11.376,0,7.333C0,3.29,3.29,0,7.333,0s7.333,3.29,7.333,7.333
		C14.666,11.376,11.376,14.666,7.333,14.666z M7.333,1C3.841,1,1,3.841,1,7.333s2.841,6.333,6.333,6.333
		c3.492,0,6.333-2.841,6.333-6.333S10.825,1,7.333,1z"/>
</g>
<g>
	<path fill="#231F20" d="M7.333,3.124c0.902,0,1.694,0.482,1.694,1.031v3.969c0,0.549-0.792,1.031-1.694,1.031
		S5.64,8.673,5.64,8.124V4.155C5.64,3.605,6.431,3.124,7.333,3.124 M7.333,2.624c-1.212,0-2.193,0.686-2.193,1.531v3.969
		c0,0.845,0.981,1.531,2.193,1.531c1.211,0,2.194-0.686,2.194-1.531V4.155C9.527,3.309,8.544,2.624,7.333,2.624L7.333,2.624z"/>
	<g>
		<rect x="7.083" y="9.213" fill="#231F20" width="0.5" height="2.83"/>
	</g>
	<g>
		<rect x="5.882" y="11.369" fill="#231F20" width="2.903" height="0.75"/>
	</g>
	<g>
		<rect x="6.354" y="4.233" fill="#231F20" width="1.958" height="0.5"/>
	</g>
	<g>
		<rect x="6.354" y="5.889" fill="#231F20" width="1.958" height="0.5"/>
	</g>
	<g>
		<rect x="6.354" y="7.545" fill="#231F20" width="1.958" height="0.5"/>
	</g>
</g>
</svg>
